<svg width="430" height="476" viewBox="0 0 430 476" fill="none" xmlns="http://www.w3.org/2000/svg">
<path d="M385.759 354.053V319.146L364.657 297.69H305.352L284.25 319.146V351.51H210.391V338.051C186.742 335.505 194.016 318.051 180.92 318.051H157.635C155.938 318.045 154.275 318.527 152.845 319.44L119.971 299.134H86.1378L43.7516 325.314H43.8428V358.277L15.375 375.862V406.044H406.86V375.501L385.759 354.053Z" fill="#F5EBDD"/>
<path d="M421.053 406.052H398.129C398.129 399.729 403.261 393.327 409.591 393.327C415.921 393.327 421.053 399.729 421.053 406.052Z" fill="#FFB7D5"/>
<path d="M432.987 406.052H415.957C415.957 401.355 419.771 396.599 424.47 396.599C429.169 396.599 432.987 401.355 432.987 406.052Z" fill="#FFB7D5"/>
<path d="M128.528 325.322L86.1377 299.142" stroke="#FFB7D5" stroke-width="4" stroke-linecap="round" stroke-linejoin="round"/>
<path d="M44.2397 325.322H128.619V405.655" stroke="#FFB7D5" stroke-width="4" stroke-linecap="round" stroke-linejoin="round"/>
<path d="M42.7515 405.806L43.1483 358.674" stroke="#FFB7D5" stroke-width="4" stroke-linecap="round" stroke-linejoin="round"/>
<path d="M15.772 375.87H42.6603" stroke="#FFB7D5" stroke-width="4" stroke-linecap="round" stroke-linejoin="round"/>
<path d="M43.208 370.233H127.981" stroke="#FFB7D5" stroke-width="4" stroke-linecap="round" stroke-linejoin="round"/>
<path d="M283.337 382.236H343.372" stroke="#FFB7D5" stroke-width="4" stroke-linecap="round" stroke-linejoin="round"/>
<path d="M128.528 325.322H148.308" stroke="#FFB7D5" stroke-width="4" stroke-linecap="round" stroke-linejoin="round"/>
<path d="M284.646 319.142H343.555V405.655" stroke="#FFB7D5" stroke-width="4" stroke-linecap="round" stroke-linejoin="round"/>
<path d="M343.555 405.258V319.142H384.965" stroke="#FFB7D5" stroke-width="4" stroke-linecap="round" stroke-linejoin="round"/>
<path d="M187.468 338.777H209.995" stroke="#FFB7D5" stroke-width="4" stroke-linecap="round" stroke-linejoin="round"/>
<path d="M364.657 405.655V375.508H406.237" stroke="#FFB7D5" stroke-width="4" stroke-linecap="round" stroke-linejoin="round"/>
<path d="M364.426 297.92L343.555 319.142" stroke="#FFB7D5" stroke-width="4" stroke-linecap="round" stroke-linejoin="round"/>
<path d="M343.555 354.053L364.657 375.509" stroke="#FFB7D5" stroke-width="4" stroke-linecap="round" stroke-linejoin="round"/>
<path d="M385.147 353.144H343.737" stroke="#FFB7D5" stroke-width="4" stroke-linecap="round" stroke-linejoin="round"/>
<path d="M158.079 318.777C144.982 318.777 152.257 336.231 128.607 338.777H187.559C163.898 336.234 171.176 318.777 158.079 318.777Z" stroke="#FFB7D5" stroke-width="4" stroke-linecap="round" stroke-linejoin="round"/>
<path d="M128.607 405.259V338.781H187.547V405.655" stroke="#FFB7D5" stroke-width="4" stroke-linecap="round" stroke-linejoin="round"/>
<path d="M187.468 405.259V358.051H283.341V405.655" stroke="#FFB7D5" stroke-width="4" stroke-linecap="round" stroke-linejoin="round"/>
<path d="M187.639 357.163L209.784 350.776" stroke="#FFB7D5" stroke-width="4" stroke-linecap="round" stroke-linejoin="round"/>
<path d="M283.341 351.903V358.051H187.468" stroke="#FFB7D5" stroke-width="4" stroke-linecap="round" stroke-linejoin="round"/>
<path d="M206.514 368.963H206.609C208.331 368.963 209.983 369.647 211.201 370.864C212.418 372.081 213.102 373.732 213.102 375.453V406.056H200.005V375.453C200.005 374.599 200.174 373.754 200.501 372.966C200.828 372.177 201.308 371.461 201.913 370.858C202.517 370.256 203.235 369.778 204.025 369.453C204.814 369.128 205.66 368.961 206.514 368.963Z" fill="#FFB7D5"/>
<path d="M265.093 368.963H265.204C266.926 368.963 268.578 369.647 269.795 370.864C271.013 372.081 271.697 373.732 271.697 375.453V406.056H258.6V375.453C258.6 373.732 259.284 372.081 260.502 370.864C261.719 369.647 263.371 368.963 265.093 368.963Z" fill="#FFB7D5"/>
<path d="M235.803 368.963H235.915C237.637 368.963 239.288 369.647 240.506 370.864C241.723 372.081 242.407 373.732 242.407 375.453V406.056H229.311V375.453C229.311 373.732 229.995 372.081 231.212 370.864C232.43 369.647 234.081 368.963 235.803 368.963Z" fill="#FFB7D5"/>
<path d="M386.433 383.87H386.544C388.266 383.87 389.918 384.554 391.136 385.771C392.353 386.988 393.037 388.638 393.037 390.36V406.052H379.94V390.36C379.94 388.638 380.625 386.988 381.842 385.771C383.06 384.554 384.711 383.87 386.433 383.87Z" fill="#FFB7D5"/>
<path d="M61.2538 383.87H61.353C63.075 383.87 64.7265 384.554 65.9442 385.771C67.1618 386.988 67.8459 388.638 67.8459 390.36V406.052H54.749V390.36C54.749 389.507 54.917 388.663 55.2433 387.876C55.5696 387.089 56.0478 386.373 56.6507 385.771C57.2537 385.168 57.9694 384.69 58.7572 384.364C59.5449 384.038 60.3892 383.87 61.2419 383.87H61.2538Z" fill="#FFB7D5"/>
<path d="M111.097 383.87H111.208C112.062 383.869 112.907 384.036 113.696 384.362C114.484 384.687 115.201 385.165 115.805 385.768C116.408 386.371 116.887 387.086 117.214 387.874C117.541 388.662 117.709 389.507 117.709 390.36V406.052H104.612V390.36C104.612 388.64 105.295 386.99 106.511 385.774C107.727 384.557 109.377 383.872 111.097 383.87Z" fill="#FFB7D5"/>
<path d="M86.1735 383.87H86.2847C88.0067 383.87 89.6582 384.554 90.8758 385.771C92.0935 386.988 92.7775 388.638 92.7775 390.36V406.052H79.6807V390.36C79.6807 388.638 80.3647 386.988 81.5824 385.771C82.8 384.554 84.4515 383.87 86.1735 383.87Z" fill="#FFB7D5"/>
<path d="M67.8537 336.96H54.7568V359.142H67.8537V336.96Z" fill="#FFB7D5"/>
<path d="M117.701 336.96H104.604V359.142H117.701V336.96Z" fill="#FFB7D5"/>
<path d="M92.7775 336.96H79.6807V359.142H92.7775V336.96Z" fill="#FFB7D5"/>
<path d="M153.162 350.05H142.28V366.413H153.162V350.05Z" fill="#FFB7D5"/>
<path d="M173.871 350.05H162.989V366.413H173.871V350.05Z" fill="#FFB7D5"/>
<path d="M153.162 378.781H142.28V395.143H153.162V378.781Z" fill="#FFB7D5"/>
<path d="M173.871 378.781H162.989V395.143H173.871V378.781Z" fill="#FFB7D5"/>
<path d="M308.523 328.234H297.641V344.596H308.523V328.234Z" fill="#FFB7D5"/>
<path d="M329.232 328.234H318.35V344.596H329.232V328.234Z" fill="#FFB7D5"/>
<path d="M371.074 328.234H360.192V344.596H371.074V328.234Z" fill="#FFB7D5"/>
<path d="M308.523 356.96H297.641V373.323H308.523V356.96Z" fill="#FFB7D5"/>
<path d="M329.232 356.96H318.35V373.323H329.232V356.96Z" fill="#FFB7D5"/>
<path d="M4.02051 406.052H26.944C26.944 399.729 21.8124 393.327 15.4823 393.327C9.15211 393.327 4.02051 399.729 4.02051 406.052Z" fill="#FFB7D5"/>
<path d="M-7.91357 406.052H9.11633C9.11633 401.355 5.30236 396.599 0.603358 396.599C-4.09564 396.599 -7.91357 401.355 -7.91357 406.052Z" fill="#FFB7D5"/>
<path d="M199.779 180.88C171.533 198.139 161.711 246.215 155.726 263.756C149.253 282.724 134.997 282.292 118.455 287.813C101.914 293.335 102.529 305.374 102.529 305.374C98.6623 308.007 94.9679 310.883 91.4678 313.986L112.411 340.737C117.352 337.329 124.686 333.057 134.747 326.984C155.527 314.438 174.129 302.657 186.134 289.567C198.14 276.477 229.691 219.079 229.691 219.079L199.779 180.88Z" fill="#4856DF"/>
<path d="M112.411 340.737L91.4639 313.99C82.0976 322.32 76.4858 330.253 73.6641 334.87L103.196 372.577C107.355 365.041 104.049 354.434 104.386 349.805C104.612 347.016 107.144 344.37 112.411 340.737Z" fill="#30242A"/>
<path d="M71.3701 339.027L100.405 376.104C101.523 375.094 102.462 373.903 103.184 372.581L73.6561 334.874C72.8197 336.216 72.0566 337.603 71.3701 339.027Z" fill="#3EC1F3"/>
<path d="M101.671 342.323L107.295 345.453" stroke="white" stroke-width="4" stroke-linecap="round" stroke-linejoin="round"/>
<path d="M99.167 347.98L104.803 349.257" stroke="white" stroke-width="4" stroke-linecap="round" stroke-linejoin="round"/>
<path d="M109.224 316.032L99.1909 323.871" stroke="#3EC1F3" stroke-width="4" stroke-miterlimit="10" stroke-linecap="round"/>
<path d="M104.144 309.539L94.1113 317.377" stroke="#3EC1F3" stroke-width="4" stroke-miterlimit="10" stroke-linecap="round"/>
<path d="M114.304 322.526L104.271 330.364" stroke="#3EC1F3" stroke-width="4" stroke-miterlimit="10" stroke-linecap="round"/>
<path d="M119.384 329.019L109.351 336.857" stroke="#3EC1F3" stroke-width="4" stroke-miterlimit="10" stroke-linecap="round"/>
<path d="M101.62 305.719L123.635 333.867" stroke="#3EC1F3" stroke-width="4" stroke-miterlimit="10" stroke-linecap="round"/>
<path d="M208.522 255.644C203.74 248.107 199.06 239.777 195.504 231.181" stroke="#30242A" stroke-width="4" stroke-linecap="round" stroke-linejoin="round"/>
<path d="M216.392 75.1366C218.301 75.1366 219.849 73.5898 219.849 71.6817C219.849 69.7735 218.301 68.2267 216.392 68.2267C214.483 68.2267 212.936 69.7735 212.936 71.6817C212.936 73.5898 214.483 75.1366 216.392 75.1366Z" fill="#4756DF"/>
<path d="M227.366 122.046L227.128 118.032C231.752 118.611 235.177 117.925 237.625 116.672L227.128 108.227C227.128 108.227 230.763 106.775 228.581 99.135L240.265 94.8907C239.649 93.304 239.241 89.4801 238.062 85.3707L231.105 88.3972C229.48 91.5125 227.151 94.2059 224.302 96.2631C223.125 95.0465 221.811 93.971 220.385 93.0581C220.195 92.9351 219.988 92.8201 219.798 92.705H219.778C219.583 92.594 219.381 92.4869 219.186 92.3837H219.155C218.956 92.2846 218.758 92.1854 218.555 92.0981L218.516 92.0267C218.321 91.9355 218.119 91.8562 217.916 91.7768H217.861C217.659 91.7054 217.464 91.638 217.258 91.5745H217.19C216.992 91.515 216.793 91.4635 216.587 91.4198H216.516C216.313 91.3762 216.119 91.3445 215.912 91.3207H215.833C215.634 91.3008 215.436 91.2889 215.234 91.285C213.499 91.2612 211.781 91.9672 210.348 93.9704C209.493 95.1318 209.029 96.5347 209.023 97.9767C209.05 102.241 213.019 106.307 216.563 107.497C213.761 113.403 204.708 117.088 201.236 118.314C201.347 119.666 201.454 120.924 201.549 122.046H227.366Z" fill="#EAA58B"/>
<path d="M297.986 146.41C296.343 146.41 295.549 145.077 296.212 143.435L301.768 129.722L301.724 129.682L301.82 129.591C303.355 128.149 304.785 126.598 306.098 124.95C308.606 121.757 309.36 119.436 308.479 118.488C308.226 118.234 307.892 118.076 307.535 118.044C307.171 118 306.803 118.022 306.447 118.107C303.613 118.726 298.76 122.586 293.35 128.952C286.806 136.644 274.078 151.864 274.078 151.864C272.752 150.852 270.828 149.139 268.522 147.072L250.21 170.602C254.134 173.655 258.323 176.351 262.727 178.659C263.558 176.088 265.144 173.827 267.279 172.169C269.413 170.512 271.998 169.535 274.695 169.366C277.393 169.197 280.079 169.844 282.404 171.222C284.729 172.599 286.585 174.645 287.731 177.092C298.764 168.853 307.479 154.153 311.563 146.41H297.986Z" fill="#EAA58B"/>
<path d="M237.315 127.136H231.719C242.391 133.562 237.672 145.684 237.672 145.684C237.672 145.684 252.25 155.866 242.407 168.23C243.129 167.471 243.741 166.614 244.225 165.684C244.225 165.684 246.574 167.842 250.178 170.602L268.49 147.072C259.985 139.488 246.177 127.136 237.315 127.136Z" fill="#FFB7D5"/>
<path d="M181.285 146.767C181.285 146.767 170.569 155.696 177.812 167.651L181.626 146.231L181.285 146.767Z" fill="#FF7235"/>
<path d="M201.533 122.047V122.177L201.994 122.047H201.533Z" fill="#FF7235"/>
<path d="M216.531 107.497C213.003 106.307 209.034 102.253 208.99 97.9767L199.898 101.943C200.251 106.949 200.763 113.26 201.188 118.314C204.692 117.088 213.753 113.403 216.531 107.497Z" fill="#30242A"/>
<path d="M227.128 108.227L237.625 116.672C239.705 115.67 241.352 113.952 242.265 111.832C243.813 107.961 242.812 104.629 241.606 100.305C241.606 100.305 244.682 98.2464 244.202 96.3385C243.805 94.7875 240.3 95.0017 240.3 95.0017L240.265 94.9025L228.58 99.1469C230.763 106.775 227.128 108.227 227.128 108.227Z" fill="#EAA58B"/>
<path d="M224.302 96.2551C227.151 94.1979 229.48 91.5045 231.104 88.3892L220.389 93.0501C221.813 93.9632 223.126 95.0388 224.302 96.2551Z" fill="#30242A"/>
<path d="M218.555 92.0624L218.516 92.0267L218.555 92.0624Z" fill="#4756DF"/>
<path d="M210.34 93.9307C211.772 91.9275 213.491 91.2215 215.225 91.2453H215.186C214.189 80.2378 216.646 74.2521 218.468 71.4119C216.721 71.6697 214.996 72.0596 213.308 72.5781C200.684 76.398 199.235 88.8415 199.588 96.2433C199.656 97.7268 199.783 99.7022 199.938 101.931L209.03 97.9648C209.026 96.515 209.484 95.1017 210.34 93.9307Z" fill="#4756DF"/>
<path d="M219.777 92.6851C219.583 92.5741 219.381 92.467 219.186 92.3638C219.388 92.467 219.583 92.5741 219.777 92.6851Z" fill="#3EC1F3"/>
<path d="M220.385 93.0501C220.194 92.9271 219.988 92.8121 219.797 92.6971C219.996 92.82 220.194 92.9271 220.385 93.0501Z" fill="#3EC1F3"/>
<path d="M217.182 91.5547C216.984 91.4952 216.785 91.4437 216.579 91.4C216.782 91.4437 216.984 91.4952 217.182 91.5547Z" fill="#3EC1F3"/>
<path d="M219.154 92.348C218.956 92.2488 218.758 92.1496 218.555 92.0624C218.758 92.1496 218.956 92.2488 219.154 92.348Z" fill="#3EC1F3"/>
<path d="M215.825 91.281C215.626 91.2612 215.428 91.2493 215.226 91.2453C215.424 91.2334 215.626 91.2612 215.825 91.281Z" fill="#3EC1F3"/>
<path d="M216.508 91.3881C216.305 91.3445 216.111 91.3127 215.904 91.2889C216.107 91.3127 216.305 91.3445 216.508 91.3881Z" fill="#3EC1F3"/>
<path d="M217.853 91.7728C217.65 91.7014 217.456 91.634 217.25 91.5705C217.452 91.63 217.65 91.7014 217.853 91.7728Z" fill="#3EC1F3"/>
<path d="M218.515 92.0266C218.321 91.9354 218.118 91.8561 217.916 91.7767C218.118 91.8719 218.313 91.9513 218.515 92.0266Z" fill="#3EC1F3"/>
<path d="M215.186 91.2334H215.225C215.424 91.2334 215.622 91.2334 215.825 91.2691H215.904C216.107 91.2929 216.301 91.3246 216.507 91.3682H216.579C216.781 91.4119 216.976 91.4634 217.182 91.5229H217.25C217.452 91.5864 217.646 91.6538 217.853 91.7252H217.908C218.111 91.8046 218.305 91.8839 218.508 91.9751L218.555 91.995C218.758 92.0822 218.952 92.1814 219.155 92.2806H219.186C219.389 92.3837 219.583 92.4908 219.778 92.6019H219.797C219.996 92.7169 220.194 92.8319 220.385 92.9549L231.101 88.2941L238.058 85.2675C235.934 77.8657 231.311 69.504 218.464 71.3286C216.646 74.2481 214.19 80.2338 215.186 91.2334Z" fill="#3EC1F3"/>
<path d="M275.515 169.321C272.665 169.322 269.889 170.227 267.586 171.904C265.283 173.582 263.572 175.947 262.7 178.659C268.542 181.626 274.721 183.45 279.519 181.685C282.458 180.555 285.22 179.008 287.719 177.092C286.636 174.77 284.913 172.804 282.751 171.428C280.589 170.051 278.078 169.32 275.515 169.321Z" fill="#EAA58B"/>
<path d="M239.153 191.685C252.25 183.137 243.122 168.583 242.408 168.23C252.23 155.866 237.677 145.684 237.677 145.684C237.677 145.684 242.392 133.562 231.724 127.136H227.668L227.366 122.047H202.006L201.545 122.177L201.974 127.136H193.79L181.626 146.235L177.812 167.655L178.007 167.977C177.877 168.217 177.745 168.459 177.61 168.702C175.149 173.542 174.788 177.659 175.419 180.999C176.733 187.984 182.36 191.665 182.36 191.665H239.153V191.685Z" fill="#FF7235"/>
<path d="M182.376 198.06H239.133V192.959V191.685H182.376V192.959V198.06Z" fill="#30242A"/>
<path d="M176.447 145.684H237.677" stroke="#A15842" stroke-width="4" stroke-miterlimit="10" stroke-linecap="round"/>
<path d="M177.907 168.23H242.725" stroke="#A15842" stroke-width="4" stroke-miterlimit="10" stroke-linecap="round"/>
<path d="M228.58 129.682L228.445 127.532" stroke="#A15842" stroke-width="4" stroke-miterlimit="10" stroke-linecap="round"/>
<path d="M221.667 128.591L221.306 122.772" stroke="#A15842" stroke-width="4" stroke-miterlimit="10" stroke-linecap="round"/>
<path d="M216.21 128.591L215.849 122.772" stroke="#A15842" stroke-width="4" stroke-miterlimit="10" stroke-linecap="round"/>
<path d="M210.753 128.591L210.392 122.772" stroke="#A15842" stroke-width="4" stroke-miterlimit="10" stroke-linecap="round"/>
<path d="M273.316 151.558L268.966 156.957" stroke="#A15842" stroke-width="4" stroke-linecap="round" stroke-linejoin="round"/>
<path d="M222.032 117.683C223.641 118.246 225.307 118.627 227.001 118.822" stroke="#A15842" stroke-width="4" stroke-miterlimit="10" stroke-linecap="round"/>
<path d="M306.098 124.95C306.118 126.017 306.891 126.771 308.11 126.771H319.98C321.623 126.771 323.497 125.438 324.163 123.792L327.783 114.835C328.446 113.193 327.652 111.86 326.009 111.86H314.134C312.491 111.86 310.618 113.193 309.955 114.835L308.479 118.488C309.36 119.44 308.606 121.777 306.098 124.95Z" fill="#F5EBDD"/>
<path d="M330.541 106.045H327.335L327.053 106.739C326.83 107.256 326.47 107.702 326.012 108.028C325.554 108.355 325.015 108.55 324.453 108.591H318.333C317.313 108.591 316.817 107.762 317.23 106.739L317.512 106.045H314.305C312.658 106.045 310.789 107.378 310.122 109.024L306.447 118.111C306.803 118.026 307.171 118.004 307.534 118.048C307.892 118.08 308.226 118.238 308.479 118.492L309.955 114.839C310.618 113.197 312.491 111.864 314.135 111.864H326.009C327.652 111.864 328.446 113.197 327.783 114.839L324.163 123.796C323.497 125.442 321.624 126.775 319.98 126.775H308.11C306.876 126.775 306.126 126.021 306.098 124.954C304.781 126.601 303.347 128.15 301.808 129.591L301.756 129.722L296.2 143.435C295.537 145.077 296.331 146.41 297.974 146.41H314.214C315.857 146.41 317.73 145.077 318.393 143.435L332.284 109.024C332.982 107.378 332.188 106.045 330.541 106.045ZM314.666 140.952C314.45 141.454 314.1 141.887 313.654 142.205C313.212 142.548 312.674 142.745 312.114 142.768H303.05C302.042 142.768 301.558 141.955 301.962 140.952C302.183 140.445 302.537 140.008 302.987 139.688C303.438 139.368 303.967 139.176 304.518 139.135H313.615C314.599 139.139 315.083 139.952 314.678 140.956L314.666 140.952Z" fill="#4756DF"/>
<path d="M313.595 139.139H304.499C303.948 139.18 303.418 139.372 302.968 139.692C302.517 140.012 302.163 140.449 301.943 140.956C301.546 141.959 302.022 142.772 303.03 142.772H312.127C312.686 142.749 313.224 142.552 313.667 142.209C314.112 141.891 314.462 141.458 314.679 140.956C315.083 139.952 314.599 139.139 313.595 139.139Z" fill="#3EC1F3"/>
<path d="M318.334 108.591H324.454C325.015 108.55 325.554 108.355 326.012 108.028C326.471 107.702 326.831 107.256 327.053 106.739L327.335 106.045H317.512L317.23 106.739C316.818 107.762 317.314 108.591 318.334 108.591Z" fill="#3EC1F3"/>
<path d="M247.138 82.0465L222.762 92.9548" stroke="#5C4C54" stroke-width="4" stroke-linecap="round" stroke-linejoin="round"/>
<path d="M239.308 104.799C238.578 104.994 236.188 104.593 235.795 102.542" stroke="black" stroke-width="4" stroke-miterlimit="10" stroke-linecap="round"/>
<path d="M235.55 94.4266C236.199 94.4266 236.724 93.9009 236.724 93.2524C236.724 92.604 236.199 92.0783 235.55 92.0783C234.901 92.0783 234.375 92.604 234.375 93.2524C234.375 93.9009 234.901 94.4266 235.55 94.4266Z" fill="#30242A"/>
<path d="M215.384 98.5796L219.651 101.293" stroke="#A15842" stroke-width="4" stroke-miterlimit="10" stroke-linecap="round"/>
<path d="M264.95 192.958C266.397 192.958 267.786 193.533 268.809 194.556C269.832 195.579 270.407 196.966 270.407 198.413V198.413C270.409 199.13 270.27 199.842 269.996 200.505C269.723 201.169 269.322 201.773 268.815 202.281C268.308 202.789 267.706 203.193 267.042 203.469C266.379 203.744 265.668 203.886 264.95 203.887" stroke="#FF7235" stroke-width="4" stroke-miterlimit="10"/>
<path d="M272.605 192.958C274.05 192.963 275.434 193.539 276.454 194.562C277.474 195.584 278.047 196.969 278.047 198.413C278.051 199.86 277.48 201.249 276.46 202.275C275.439 203.302 274.053 203.881 272.605 203.887" stroke="#FF7235" stroke-width="4" stroke-miterlimit="10"/>
<path d="M311.94 193.684H251.829C249.238 193.684 247.138 195.784 247.138 198.373V198.452C247.138 201.042 249.238 203.141 251.829 203.141H311.94C314.531 203.141 316.631 201.042 316.631 198.452V198.373C316.631 195.784 314.531 193.684 311.94 193.684Z" fill="#5C4C54"/>
<path d="M322.021 395.242L285.815 193.923L276.503 195.596L312.709 396.915L322.021 395.242Z" fill="#5C4C54"/>
<path d="M251.909 193.684H251.829C249.238 193.684 247.138 195.784 247.138 198.373V198.452C247.138 201.042 249.238 203.141 251.829 203.141H251.909C254.499 203.141 256.6 201.042 256.6 198.452V198.373C256.6 195.784 254.499 193.684 251.909 193.684Z" stroke="#FF7235" stroke-width="4" stroke-miterlimit="10"/>
<path d="M297.319 193.256C298.39 193.629 299.319 194.325 299.976 195.249C300.633 196.173 300.986 197.279 300.986 198.413V198.413C300.986 199.472 300.677 200.509 300.097 201.396C299.517 202.283 298.691 202.981 297.72 203.407" stroke="#FF7235" stroke-width="4" stroke-miterlimit="10" stroke-linecap="round"/>
<path d="M303.669 193.256C304.74 193.629 305.669 194.325 306.326 195.249C306.983 196.173 307.336 197.279 307.336 198.413V198.413C307.336 199.472 307.027 200.509 306.447 201.396C305.867 202.283 305.041 202.981 304.07 203.407" stroke="#FF7235" stroke-width="4" stroke-miterlimit="10" stroke-linecap="round"/>
<path d="M317.357 396.599H184.559V406.056H317.357V396.599Z" fill="#5C4C54"/>
<path d="M192.742 417.69C199.173 417.69 204.387 412.48 204.387 406.052C204.387 399.624 199.173 394.414 192.742 394.414C186.311 394.414 181.098 399.624 181.098 406.052C181.098 412.48 186.311 417.69 192.742 417.69Z" fill="#5C4C54"/>
<path d="M192.743 410.415C195.154 410.415 197.108 408.462 197.108 406.052C197.108 403.642 195.154 401.688 192.743 401.688C190.332 401.688 188.377 403.642 188.377 406.052C188.377 408.462 190.332 410.415 192.743 410.415Z" fill="#FFB7D5"/>
<path d="M319.421 417.69C325.852 417.69 331.066 412.48 331.066 406.052C331.066 399.624 325.852 394.414 319.421 394.414C312.99 394.414 307.777 399.624 307.777 406.052C307.777 412.48 312.99 417.69 319.421 417.69Z" fill="#5C4C54"/>
<path d="M319.421 410.415C321.832 410.415 323.787 408.462 323.787 406.052C323.787 403.642 321.832 401.688 319.421 401.688C317.01 401.688 315.056 403.642 315.056 406.052C315.056 408.462 317.01 410.415 319.421 410.415Z" fill="#FFB7D5"/>
<path d="M210.935 406.052H174.554C174.624 401.276 176.572 396.72 179.976 393.368C183.379 390.016 187.966 388.137 192.744 388.137C197.523 388.137 202.11 390.016 205.513 393.368C208.917 396.72 210.865 401.276 210.935 406.052Z" fill="#FF7235"/>
<path d="M337.609 406.052H301.228C301.299 401.276 303.246 396.72 306.65 393.368C310.054 390.016 314.64 388.137 319.419 388.137C324.197 388.137 328.784 390.016 332.188 393.368C335.591 396.72 337.539 401.276 337.609 406.052Z" fill="#FF7235"/>
<path d="M228.692 364.961H262.72C263.116 359.011 264.244 350.705 265.629 339.297C268.55 315.207 270.74 293.307 267.819 275.79C264.898 258.274 239.133 198.044 239.133 198.044H190.607C186.797 230.908 218.619 268.278 228.747 283.799C239.701 300.59 230.573 311.538 224.731 327.96C218.889 344.382 228.747 351.32 228.747 351.32C228.445 355.861 228.426 360.417 228.692 364.961Z" fill="#4856DF"/>
<path d="M234.192 392.236H282.103C278.717 384.303 268.335 380.38 264.898 377.254C262.783 375.334 262.291 371.589 262.719 364.957H228.691C229.434 377.65 232.263 387.103 234.192 392.236Z" fill="#30242A"/>
<path d="M236.05 396.599H283.159C283.057 395.096 282.7 393.62 282.103 392.236H234.192C234.732 393.723 235.352 395.179 236.05 396.599Z" fill="#3EC1F3"/>
<path d="M241.923 352.597V364.537" stroke="#3EC1F3" stroke-width="4" stroke-miterlimit="10" stroke-linecap="round"/>
<path d="M233.676 352.597V364.537" stroke="#3EC1F3" stroke-width="4" stroke-miterlimit="10" stroke-linecap="round"/>
<path d="M250.17 352.597V364.537" stroke="#3EC1F3" stroke-width="4" stroke-miterlimit="10" stroke-linecap="round"/>
<path d="M258.417 352.597V364.537" stroke="#3EC1F3" stroke-width="4" stroke-miterlimit="10" stroke-linecap="round"/>
<path d="M228.834 352.232H263.759" stroke="#3EC1F3" stroke-width="4" stroke-miterlimit="10" stroke-linecap="round"/>
<path d="M250.762 226.275C249.571 223.331 248.436 220.483 247.345 217.806L229.485 214.672V214.736C229.132 216.743 229.592 218.809 230.762 220.478C231.933 222.147 233.719 223.284 235.728 223.637L250.762 226.275Z" fill="#3EC1F3"/>
<path d="M257.326 374.779L262.966 372.47" stroke="white" stroke-width="4" stroke-linecap="round" stroke-linejoin="round"/>
<path d="M260.239 380.237L264.95 376.437" stroke="white" stroke-width="4" stroke-linecap="round" stroke-linejoin="round"/>
<path d="M318.814 142.403C318.814 142.403 325.061 142.649 325.561 137.195C325.561 137.195 330.022 135.144 328.855 131.071C328.855 131.071 332.935 129.904 331.768 125.827C331.692 125.569 334.086 125.105 333.966 121.745C333.792 116.842 330.466 113.312 329.014 112.947C324.648 111.856 326.307 118.944 326.1 118.766C323.556 116.584 319.842 115.593 318.516 116.703C316.206 118.639 317.81 121.225 317.81 121.225C317.81 121.225 314.849 120.527 313.4 122.665C311.638 125.259 314.79 127.679 314.79 127.679C314.79 127.679 311.488 128.048 312.039 131.102C312.65 134.518 317.782 135.279 320.215 138.857L318.814 142.403Z" fill="#EAA58B"/>
<path d="M314.654 127.052C318.131 128.357 324.179 131.249 325.898 136.021" stroke="#A15842" stroke-width="4" stroke-linecap="round" stroke-linejoin="round"/>
<path d="M318.552 120.983C321.528 122.606 326.787 125.938 329.156 130.285" stroke="#A15842" stroke-width="4" stroke-linecap="round" stroke-linejoin="round"/>
<path d="M326.664 118.207C328.621 119.944 330.744 122.257 332.042 124.95" stroke="#A15842" stroke-width="4" stroke-linecap="round" stroke-linejoin="round"/>
<path d="M288.25 190.797C286.067 185.339 279.154 179.523 271.149 176.612C255.766 171.023 218.392 179.158 218.392 179.158L212.792 167.207L185.237 180.694C189.206 188.433 193.969 194.938 198.834 199.436C200.491 197.386 202.714 195.867 205.227 195.069C207.74 194.271 210.432 194.228 212.969 194.947C215.506 195.665 217.776 197.113 219.496 199.11C221.217 201.107 222.312 203.565 222.647 206.179C237.883 204.989 254.734 198.028 259.512 193.732C259.512 193.732 262.422 196.279 265.696 196.64C265.696 197.73 260.604 212.276 269.7 209.004C269.7 209.004 272.244 212.276 275.884 208.643C275.884 208.643 278.431 212.276 282.071 209.004C282.071 209.004 284.055 210.245 286.798 207.187C290.068 203.49 291.036 197.734 288.25 190.797Z" fill="#EAA58B"/>
<path d="M194.017 127.136H193.116C185.73 127.136 173.637 132.594 175.094 146.731C176.372 158.565 179.809 170.065 185.234 180.662L212.789 167.175L194.017 127.136Z" fill="#FFB7D5"/>
<path d="M209.3 194.41C207.293 194.409 205.312 194.857 203.501 195.721C201.689 196.585 200.095 197.844 198.834 199.404C199.843 200.345 200.903 201.228 202.009 202.05C207.133 205.795 214.662 206.755 222.647 206.132C222.227 202.891 220.641 199.913 218.185 197.756C215.728 195.599 212.57 194.409 209.3 194.41Z" fill="#EAA58B"/>
<path d="M270.018 208.393C271.605 205.219 275.209 196.993 272.605 191.503" stroke="#A15842" stroke-width="4" stroke-linecap="round" stroke-linejoin="round"/>
<path d="M208.935 180.23L217.512 178.472" stroke="#A15842" stroke-width="4" stroke-linecap="round" stroke-linejoin="round"/>
<path d="M276.459 208.25C278.11 204.902 281.682 196.83 279.154 191.503" stroke="#A15842" stroke-width="4" stroke-linecap="round" stroke-linejoin="round"/>
<path d="M282.81 208.647C284.397 205.45 287.925 196.961 285.342 191.503" stroke="#A15842" stroke-width="4" stroke-linecap="round" stroke-linejoin="round"/>
</svg>
